<?xml version="1.0" encoding="UTF-8" standalone="no"?>
<!-- Uploaded to: SVG Repo, www.svgrepo.com, Generator: SVG Repo Mixer Tools -->

<svg
   fill="#000000"
   height="800"
   width="800"
   version="1.1"
   id="Layer_1"
   viewBox="0 0 392.533 392.533"
   xml:space="preserve"
   xmlns="http://www.w3.org/2000/svg"
   xmlns:svg="http://www.w3.org/2000/svg"><defs
   id="defs10" />
<g
   id="g2"
   style="fill:#b2d1e2;fill-opacity:1">
	<g
   id="g1"
   style="fill:#b2d1e2;fill-opacity:1">
		<path
   d="M 292.396,324.849 H 99.879 c -6.012,0 -10.925,4.848 -10.925,10.925 0,6.012 4.849,10.925 10.925,10.925 h 192.582 c 6.012,0 10.925,-4.849 10.925,-10.925 -0.065,-6.077 -4.913,-10.925 -10.99,-10.925 z"
   id="path1"
   style="fill:#b2d1e2;fill-opacity:1" />
	</g>
</g>
<g
   id="g4"
   style="fill:#b2d1e2;fill-opacity:1">
	<g
   id="g3"
   style="fill:#b2d1e2;fill-opacity:1">
		<path
   d="M 292.396,277.01 H 99.879 c -6.012,0 -10.925,4.848 -10.925,10.925 0,6.012 4.849,10.925 10.925,10.925 h 192.582 c 6.012,0 10.925,-4.849 10.925,-10.925 -0.065,-6.076 -4.913,-10.925 -10.99,-10.925 z"
   id="path2"
   style="fill:#b2d1e2;fill-opacity:1" />
	</g>
</g>
<g
   id="g6"
   style="fill:#b2d1e2;fill-opacity:1">
	<g
   id="g5"
   style="fill:#b2d1e2;fill-opacity:1">
		<path
   d="m 196.137,45.834 c -25.859,0 -46.998,21.075 -46.998,46.998 0,25.859 21.139,46.933 46.998,46.933 25.859,0 46.998,-21.075 46.998,-46.998 0,-25.923 -21.139,-46.933 -46.998,-46.933 z m 0,72.017 c -13.77,0 -25.083,-11.313 -25.083,-25.083 0,-13.77 11.248,-25.083 25.083,-25.083 13.835,0 25.083,11.313 25.083,25.083 0,13.769 -11.313,25.083 -25.083,25.083 z"
   id="path4"
   style="fill:#b2d1e2;fill-opacity:1" />
	</g>
</g>
<g
   id="g8"
   style="fill:#b2d1e2;fill-opacity:1">
	<g
   id="g7"
   style="fill:#b2d1e2;fill-opacity:1">
		<path
   d="m 258.521,163.362 c -39.887,-15.515 -84.752,-15.515 -124.638,0 -13.059,5.107 -21.786,18.101 -21.786,32.388 v 44.347 c -0.065,6.012 4.849,10.925 10.861,10.925 h 146.424 c 6.012,0 10.925,-4.848 10.925,-10.925 V 195.75 c 0,-14.287 -8.727,-27.281 -21.786,-32.388 z m 0,65.874 H 133.883 v -33.422 c 0,-5.301 3.168,-10.214 7.887,-12.024 34.844,-13.511 74.02,-13.511 108.865,0 4.719,1.875 7.887,6.659 7.887,12.024 v 33.422 z"
   id="path6"
   style="fill:#b2d1e2;fill-opacity:1" />
	</g>
</g>
<g
   id="g10"
   style="fill:#b2d1e2;fill-opacity:1">
	<g
   id="g9"
   style="fill:#b2d1e2;fill-opacity:1">
		<path
   d="M 313.083,0 H 131.491 C 123.087,0 115.2,3.232 109.253,9.18 L 57.018,61.414 c -5.947,5.948 -9.18,13.834 -9.18,22.238 v 277.333 c 0,17.39 14.158,31.547 31.547,31.547 h 233.762 c 17.39,0 31.547,-14.158 31.547,-31.547 V 31.547 C 344.501,14.158 330.343,0 313.083,0 Z M 112.032,37.236 V 64.258 H 85.01 Z m 210.683,79.58 h -40.598 c -6.012,0 -10.925,4.849 -10.925,10.925 0,6.012 4.848,10.925 10.925,10.925 h 40.598 v 19.394 h -14.869 c -6.012,0 -10.925,4.848 -10.925,10.925 0,6.012 4.849,10.925 10.925,10.925 h 14.869 v 181.139 c 0,5.366 -4.331,9.697 -9.632,9.697 H 79.192 c -5.301,0 -9.632,-4.331 -9.632,-9.632 V 86.044 h 53.398 c 6.012,0 10.925,-4.848 10.925,-10.925 V 21.721 h 179.2 c 5.301,0 9.632,4.331 9.632,9.632 z"
   id="path8"
   style="fill:#b2d1e2;fill-opacity:1" />
	</g>
</g>
</svg>
